HIERARCHY
ROOT Hips
{
	OFFSET 0.000000 88.474243 0.000000
	CHANNELS 6 Xposition Yposition Zposition Zrotation Yrotation Xrotation 
	JOINT Hips_Spine
	{
		OFFSET 0.000000 0.000000 0.000000
		CHANNELS 3 Zrotation Yrotation Xrotation
		JOINT Spine
		{
			OFFSET 0.005100 8.711998 -0.691000
			CHANNELS 3 Zrotation Yrotation Xrotation
			JOINT Spine1
			{
				OFFSET -0.009200 8.660301 -1.275000
				CHANNELS 3 Zrotation Yrotation Xrotation
				JOINT Spine2
				{
					OFFSET 0.006300 9.852501 -1.857000
					CHANNELS 3 Zrotation Yrotation Xrotation
					JOINT Spine2_Neck
					{
						OFFSET 0.000000 0.000000 0.000000
						CHANNELS 3 Zrotation Yrotation Xrotation
						JOINT Neck
						{
							OFFSET 0.016300 11.420799 -0.263300
							CHANNELS 3 Zrotation Yrotation Xrotation
							End Site #name: Head
							{
								OFFSET -0.019200 9.262405 2.362500
							}
						}
					}
					JOINT Spine2_LeftShoulder
					{
						OFFSET 0.000000 0.000000 0.000000
						CHANNELS 3 Zrotation Yrotation Xrotation
						JOINT LeftShoulder
						{
							OFFSET 5.616900 6.732201 -0.345700
							CHANNELS 3 Zrotation Yrotation Xrotation
							JOINT LeftArm
							{
								OFFSET 10.664888 -0.183372 -2.440700
								CHANNELS 3 Zrotation Yrotation Xrotation
								JOINT LeftForeArm
								{
									OFFSET 27.459126 0.000000 0.000000
									CHANNELS 3 Zrotation Yrotation Xrotation
									End Site #name: LeftHand
									{
										OFFSET 21.306858 0.000000 0.000000
									}
								}
							}
						}
					}
					JOINT Spine2_RightShoulder
					{
						OFFSET 0.000000 0.000000 0.000000
						CHANNELS 3 Zrotation Yrotation Xrotation
						JOINT RightShoulder
						{
							OFFSET -5.580300 6.737503 -0.344400
							CHANNELS 3 Zrotation Yrotation Xrotation
							JOINT RightArm
							{
								OFFSET -10.679335 -0.188484 -2.383900
								CHANNELS 3 Zrotation Yrotation Xrotation
								JOINT RightForeArm
								{
									OFFSET -27.503529 0.000000 0.000000
									CHANNELS 3 Zrotation Yrotation Xrotation
									End Site #name: RightHand
									{
										OFFSET -21.306808 0.000000 0.000000
									}
								}
							}
						}
					}
				}
			}
		}
	}
	JOINT Hips_LeftUpLeg
	{
		OFFSET 0.000000 0.000000 0.000000
		CHANNELS 3 Zrotation Yrotation Xrotation
		JOINT LeftUpLeg
		{
			OFFSET 6.857700 -6.739601 0.312100
			CHANNELS 3 Zrotation Yrotation Xrotation
			JOINT LeftLeg
			{
				OFFSET -0.367590 -34.731552 -4.572400
				CHANNELS 3 Zrotation Yrotation Xrotation
				End Site #name: LeftFoot
				{
					OFFSET 0.367590 -34.656704 -6.067400
				}
			}
		}
	}
	JOINT Hips_RightUpLeg
	{
		OFFSET 0.000000 0.000000 0.000000
		CHANNELS 3 Zrotation Yrotation Xrotation
		JOINT RightUpLeg
		{
			OFFSET -6.876100 -6.733299 0.301000
			CHANNELS 3 Zrotation Yrotation Xrotation
			JOINT RightLeg
			{
				OFFSET 0.347353 -34.795158 -4.515900
				CHANNELS 3 Zrotation Yrotation Xrotation
				End Site #name: RightFoot
				{
					OFFSET -0.347353 -34.589367 -6.070300
				}
			}
		}
	}
}
MOTION
Frames: 12
Frame Time: 0.041667
0.154368 0.035727 -0.001634 0.752089 22.295471 -6.503691 -0.000000 0.000000 0.000000 -0.876490 -1.869533 -0.026003 0.058145 -1.628584 -0.751192 0.000000 0.000000 0.000000 -0.040881 -0.900237 -1.406137 3.912521 0.175224 -5.557905 0.427986 -1.891514 -2.128730 -16.571723 -7.870959 2.212600 -47.026645 1.576378 7.653607 0.258726 -28.661128 5.315560 0.023608 -1.159588 -0.247821 13.585663 11.656755 4.279710 56.333828 -5.624125 -4.727321 -0.416864 53.978217 0.717552 0.000000 0.000000 0.000000 -9.768825 19.704003 -3.986884 -1.006269 -0.928113 21.766699 0.000000 0.000000 0.000000 -4.359383 14.314793 -6.621774 6.901859 1.656703 -4.753014 
0.684265 -0.041672 0.172786 2.426955 24.807425 -7.033790 -0.000000 0.000000 0.000000 -3.569594 -2.622031 -0.238485 0.445257 -1.527548 -0.847074 0.000000 0.000000 0.000000 0.077981 -0.907261 -2.097972 4.508490 -1.243150 -4.041985 -0.188529 -1.535573 -2.781165 -22.667714 -4.633956 0.654633 -44.309530 1.827437 -1.117216 -0.436021 -21.707182 3.369278 -0.055536 -1.438634 -0.593241 14.070789 8.330234 1.652635 58.841718 -1.509903 -3.554827 -0.553600 54.216403 -0.956411 0.000000 0.000000 -0.000000 -12.394948 17.392577 -0.832454 -0.545242 2.730362 18.985293 0.000000 0.000000 0.000000 -7.959301 16.210838 -6.534741 6.855955 1.425251 -2.922359 
0.959114 -0.063835 0.214799 3.827555 23.131932 -7.113863 -0.000000 0.000000 0.000000 -4.804408 -3.542384 -0.156357 0.437065 -1.222286 -0.959121 0.000000 0.000000 0.000000 0.542487 -1.296787 -2.059723 4.021417 -1.708721 -5.229552 -0.397935 -1.408882 -2.490226 -26.262310 -3.781500 2.000876 -44.464145 9.603582 -4.980079 -1.041413 -22.252333 3.728008 0.065744 -1.314854 -0.493330 13.166622 7.716621 1.955798 57.921066 1.126229 -2.446489 -0.168702 49.459393 -0.769311 0.000000 0.000000 -0.000000 -13.957341 17.317176 1.105250 -1.169383 3.403053 17.028270 0.000000 0.000000 0.000000 -9.744345 17.123675 -8.727301 6.241404 -0.360936 2.020096 
1.203862 -0.078926 0.192545 4.504449 21.306804 -6.937423 -0.000000 0.000000 -0.000000 -5.845291 -2.880023 0.843549 0.470371 -1.037962 -0.993170 0.000000 0.000000 0.000000 0.800572 -1.367535 -1.935003 4.048804 -2.521041 -5.110362 -0.244454 -1.397475 -2.361543 -28.327106 -3.186581 2.814105 -42.992154 10.660887 -3.668109 -0.600492 -21.886648 5.557316 0.211300 -1.192393 -0.395522 12.328244 7.889058 1.966938 57.741901 5.128135 -1.371413 0.017333 51.616769 -0.655050 0.000000 0.000000 -0.000000 -14.802893 17.599234 1.389914 -1.419785 4.068737 16.502561 0.000000 0.000000 0.000000 -11.032707 16.475352 -11.561105 5.606383 -0.364454 8.220302 
1.497356 -0.074640 0.138772 4.762648 20.774245 -6.571004 -0.000000 0.000000 -0.000000 -6.413284 -2.239778 0.834566 0.442174 -0.925454 -0.916369 0.000000 0.000000 0.000000 0.762723 -1.407422 -2.007313 4.008143 -3.095852 -4.453989 -0.194610 -1.399798 -2.205246 -30.769378 -2.042870 3.587121 -40.328540 10.052333 -2.789802 -0.027685 -18.059141 7.414756 0.255662 -1.090170 -0.267393 10.784669 8.088995 1.832470 58.603986 7.023525 -1.023649 0.085268 54.025666 -0.741404 0.000000 0.000000 -0.000000 -15.452433 17.957841 1.316956 -1.442099 4.343144 15.968415 0.000000 0.000000 0.000000 -12.062191 15.525434 -13.431981 5.409516 0.579653 12.776379 
1.828267 -0.055418 0.079400 4.803173 21.043498 -6.298247 -0.000000 0.000000 -0.000000 -6.759802 -1.906543 0.359153 0.337961 -0.848618 -0.834178 0.000000 0.000000 0.000000 0.563616 -1.424529 -1.999374 3.740933 -3.321053 -3.418239 -0.253068 -1.381709 -2.142726 -32.755443 -1.135220 4.086076 -38.039859 8.999269 -1.623835 0.490423 -12.915689 8.507328 0.182848 -1.099318 -0.257959 9.175355 8.024213 1.709647 60.159296 7.290534 -1.481370 0.233033 55.072736 -0.759328 0.000000 0.000000 -0.000000 -15.888518 18.251166 1.175885 -1.342468 4.459063 15.444221 0.000000 0.000000 0.000000 -12.719519 14.564465 -14.104813 5.478480 2.040269 15.246737 
2.175353 -0.026765 0.020579 4.684881 21.784734 -6.150724 -0.000000 0.000000 -0.000000 -6.858986 -1.727666 -0.216380 0.142753 -0.780404 -0.820347 0.000000 0.000000 0.000000 0.264498 -1.427608 -2.026915 3.396507 -3.418840 -2.480625 -0.442938 -1.391312 -2.159699 -34.296366 -0.278657 4.315800 -36.106870 7.776449 -0.303718 0.936012 -7.822671 9.060220 -0.005826 -1.109692 -0.291359 8.075683 7.898456 1.623022 61.784348 6.253234 -2.798614 0.396305 54.634678 -0.712721 0.000000 0.000000 -0.000000 -16.171197 18.290261 0.876302 -1.310409 4.510628 15.300540 0.000000 0.000000 0.000000 -13.134522 13.460055 -14.137588 5.546184 3.354712 16.473150 
2.513338 0.008531 -0.031344 4.488288 22.784539 -6.011852 -0.000000 0.000000 -0.000000 -6.905351 -1.597220 -0.753909 -0.070735 -0.691736 -0.920203 0.000000 0.000000 0.000000 -0.030779 -1.404773 -2.136311 2.967543 -3.292183 -1.733915 -0.685930 -1.391633 -2.274160 -35.429475 0.533395 4.336618 -34.629664 6.765442 0.565279 1.171433 -4.263955 9.015532 -0.227377 -1.067306 -0.347479 7.431790 7.671419 1.567110 63.281063 4.419591 -3.785697 0.571630 53.289436 -0.652700 0.000000 0.000000 -0.000000 -16.307771 18.091748 0.444293 -1.214467 4.578348 15.486162 0.000000 0.000000 0.000000 -13.381072 11.990570 -13.810517 5.497318 4.336313 16.937342 
2.815187 0.051300 -0.068459 4.204634 23.885307 -5.869002 -0.000000 0.000000 -0.000000 -7.062649 -1.383226 -1.092062 -0.244262 -0.587707 -1.071665 0.000000 0.000000 0.000000 -0.240449 -1.365511 -2.271251 2.680310 -3.018714 -1.264951 -0.887679 -1.372827 -2.468656 -36.034664 1.115463 4.363647 -33.734787 6.148000 0.973343 1.181615 -2.784700 8.670193 -0.471225 -0.992039 -0.457616 7.138450 7.453621 1.545882 65.156239 3.457386 -4.178572 0.696684 50.919855 -0.535211 0.000000 0.000000 -0.000000 -16.272418 17.800666 -0.092649 -1.038408 4.681805 15.942770 0.000000 0.000000 0.000000 -13.466624 10.236877 -13.333332 5.370797 5.131830 16.930243 
3.075212 0.098800 -0.095769 3.882181 24.895560 -5.748148 -0.000000 0.000000 -0.000000 -7.393329 -1.124266 -1.212603 -0.380270 -0.473175 -1.244379 0.000000 0.000000 0.000000 -0.386249 -1.310787 -2.420834 2.514698 -2.758410 -1.013312 -1.046151 -1.314940 -2.640079 -36.089132 1.452525 4.382151 -33.598229 6.009667 1.070069 1.098809 -2.696401 8.294627 -0.664704 -0.887372 -0.555170 6.874202 7.283029 1.511399 66.431985 2.993758 -3.910527 0.799255 48.179651 -0.453226 0.000000 0.000000 -0.000000 -16.132216 17.530556 -0.617039 -0.833659 4.804400 16.443735 0.000000 0.000000 0.000000 -13.421064 8.406710 -12.745262 5.249983 6.016875 16.574762 
3.288693 0.149270 -0.118183 3.555877 25.653950 -5.666428 -0.000000 0.000000 -0.000000 -7.890609 -0.865777 -1.085561 -0.472756 -0.366510 -1.385755 0.000000 0.000000 0.000000 -0.527823 -1.243302 -2.530476 2.504742 -2.491011 -0.955891 -1.162396 -1.235125 -2.756575 -35.742665 1.622306 4.382430 -33.991047 5.965921 0.835425 0.995619 -3.512011 8.043295 -0.870326 -0.761406 -0.611307 6.650344 7.152140 1.473391 67.046326 2.838995 -3.568904 0.867487 45.867501 -0.418568 0.000000 0.000000 -0.000000 -15.941956 17.327858 -1.055403 -0.661651 4.896945 16.836704 0.000000 0.000000 0.000000 -13.256194 6.693862 -12.043649 5.046158 6.807520 15.748623 
3.450811 0.201635 -0.138396 3.278757 26.062963 -5.592880 -0.000000 0.000000 -0.000000 -8.406124 -0.663038 -0.814756 -0.556922 -0.273258 -1.503307 0.000000 0.000000 0.000000 -0.666333 -1.184600 -2.619719 2.615159 -2.252867 -1.028976 -1.261299 -1.186465 -2.839829 -35.162162 1.684424 4.432643 -34.666821 5.743750 0.633732 0.936889 -4.560201 7.932488 -1.044745 -0.662466 -0.643128 6.493291 7.020691 1.442471 67.146857 2.896682 -3.448560 0.897549 44.326132 -0.401767 0.000000 0.000000 -0.000000 -15.746965 17.205721 -1.378170 -0.577279 4.963713 17.061305 0.000000 0.000000 0.000000 -13.012870 5.209830 -11.342257 4.762680 7.294341 14.742061 
